<mxfile host="app.diagrams.net" modified="2022-06-29T06:07:26.850Z" agent="5.0 (Windows NT 10.0; Win64; x64) AppleWebKit/537.36 (KHTML, like Gecko) Chrome/103.0.5060.53 Safari/537.36 Edg/103.0.1264.37" etag="BBiIWN7AeDPnMb1EH6-h" version="20.0.3" type="github">
  <diagram name="Page-1" id="c4acf3e9-155e-7222-9cf6-157b1a14988f">
    <mxGraphModel dx="944" dy="526" grid="1" gridSize="10" guides="1" tooltips="1" connect="1" arrows="1" fold="1" page="1" pageScale="1" pageWidth="850" pageHeight="1100" background="none" math="0" shadow="0">
      <root>
        <mxCell id="0" />
        <mxCell id="1" parent="0" />
        <mxCell id="1pmSozE0tnj0pJejJN0J-2" value="Person" style="swimlane;fontStyle=0;childLayout=stackLayout;horizontal=1;startSize=30;horizontalStack=0;resizeParent=1;resizeParentMax=0;resizeLast=0;collapsible=1;marginBottom=0;" vertex="1" parent="1">
          <mxGeometry x="200" y="170" width="140" height="120" as="geometry" />
        </mxCell>
        <mxCell id="1pmSozE0tnj0pJejJN0J-3" value="- name : string" style="text;strokeColor=none;fillColor=none;align=left;verticalAlign=middle;spacingLeft=4;spacingRight=4;overflow=hidden;points=[[0,0.5],[1,0.5]];portConstraint=eastwest;rotatable=0;" vertex="1" parent="1pmSozE0tnj0pJejJN0J-2">
          <mxGeometry y="30" width="140" height="30" as="geometry" />
        </mxCell>
        <mxCell id="1pmSozE0tnj0pJejJN0J-4" value="- age : int" style="text;strokeColor=none;fillColor=none;align=left;verticalAlign=middle;spacingLeft=4;spacingRight=4;overflow=hidden;points=[[0,0.5],[1,0.5]];portConstraint=eastwest;rotatable=0;" vertex="1" parent="1pmSozE0tnj0pJejJN0J-2">
          <mxGeometry y="60" width="140" height="30" as="geometry" />
        </mxCell>
        <mxCell id="1pmSozE0tnj0pJejJN0J-5" value="+ introduce() : string" style="text;strokeColor=none;fillColor=none;align=left;verticalAlign=middle;spacingLeft=4;spacingRight=4;overflow=hidden;points=[[0,0.5],[1,0.5]];portConstraint=eastwest;rotatable=0;" vertex="1" parent="1pmSozE0tnj0pJejJN0J-2">
          <mxGeometry y="90" width="140" height="30" as="geometry" />
        </mxCell>
        <mxCell id="1pmSozE0tnj0pJejJN0J-6" value="" style="endArrow=none;html=1;rounded=0;entryX=0.997;entryY=0.067;entryDx=0;entryDy=0;entryPerimeter=0;" edge="1" parent="1pmSozE0tnj0pJejJN0J-2" target="1pmSozE0tnj0pJejJN0J-5">
          <mxGeometry width="50" height="50" relative="1" as="geometry">
            <mxPoint y="92" as="sourcePoint" />
            <mxPoint x="160" y="90" as="targetPoint" />
          </mxGeometry>
        </mxCell>
        <mxCell id="1pmSozE0tnj0pJejJN0J-8" value="Classname" style="swimlane;fontStyle=1;align=center;verticalAlign=top;childLayout=stackLayout;horizontal=1;startSize=26;horizontalStack=0;resizeParent=1;resizeParentMax=0;resizeLast=0;collapsible=1;marginBottom=0;" vertex="1" parent="1">
          <mxGeometry x="60" y="390" width="160" height="86" as="geometry" />
        </mxCell>
        <mxCell id="1pmSozE0tnj0pJejJN0J-9" value="+ field: type" style="text;strokeColor=none;fillColor=none;align=left;verticalAlign=top;spacingLeft=4;spacingRight=4;overflow=hidden;rotatable=0;points=[[0,0.5],[1,0.5]];portConstraint=eastwest;" vertex="1" parent="1pmSozE0tnj0pJejJN0J-8">
          <mxGeometry y="26" width="160" height="26" as="geometry" />
        </mxCell>
        <mxCell id="1pmSozE0tnj0pJejJN0J-10" value="" style="line;strokeWidth=1;fillColor=none;align=left;verticalAlign=middle;spacingTop=-1;spacingLeft=3;spacingRight=3;rotatable=0;labelPosition=right;points=[];portConstraint=eastwest;" vertex="1" parent="1pmSozE0tnj0pJejJN0J-8">
          <mxGeometry y="52" width="160" height="8" as="geometry" />
        </mxCell>
        <mxCell id="1pmSozE0tnj0pJejJN0J-11" value="+ method(type): type" style="text;strokeColor=none;fillColor=none;align=left;verticalAlign=top;spacingLeft=4;spacingRight=4;overflow=hidden;rotatable=0;points=[[0,0.5],[1,0.5]];portConstraint=eastwest;" vertex="1" parent="1pmSozE0tnj0pJejJN0J-8">
          <mxGeometry y="60" width="160" height="26" as="geometry" />
        </mxCell>
        <mxCell id="1pmSozE0tnj0pJejJN0J-12" value="Classname" style="swimlane;fontStyle=1;align=center;verticalAlign=top;childLayout=stackLayout;horizontal=1;startSize=26;horizontalStack=0;resizeParent=1;resizeParentMax=0;resizeLast=0;collapsible=1;marginBottom=0;" vertex="1" parent="1">
          <mxGeometry x="370" y="390" width="160" height="86" as="geometry" />
        </mxCell>
        <mxCell id="1pmSozE0tnj0pJejJN0J-13" value="+ field: type" style="text;strokeColor=none;fillColor=none;align=left;verticalAlign=top;spacingLeft=4;spacingRight=4;overflow=hidden;rotatable=0;points=[[0,0.5],[1,0.5]];portConstraint=eastwest;" vertex="1" parent="1pmSozE0tnj0pJejJN0J-12">
          <mxGeometry y="26" width="160" height="26" as="geometry" />
        </mxCell>
        <mxCell id="1pmSozE0tnj0pJejJN0J-14" value="" style="line;strokeWidth=1;fillColor=none;align=left;verticalAlign=middle;spacingTop=-1;spacingLeft=3;spacingRight=3;rotatable=0;labelPosition=right;points=[];portConstraint=eastwest;" vertex="1" parent="1pmSozE0tnj0pJejJN0J-12">
          <mxGeometry y="52" width="160" height="8" as="geometry" />
        </mxCell>
        <mxCell id="1pmSozE0tnj0pJejJN0J-15" value="+ method(type): type" style="text;strokeColor=none;fillColor=none;align=left;verticalAlign=top;spacingLeft=4;spacingRight=4;overflow=hidden;rotatable=0;points=[[0,0.5],[1,0.5]];portConstraint=eastwest;" vertex="1" parent="1pmSozE0tnj0pJejJN0J-12">
          <mxGeometry y="60" width="160" height="26" as="geometry" />
        </mxCell>
        <mxCell id="1pmSozE0tnj0pJejJN0J-17" value="Extends" style="endArrow=block;endSize=16;endFill=0;html=1;rounded=0;" edge="1" parent="1" source="1pmSozE0tnj0pJejJN0J-8" target="1pmSozE0tnj0pJejJN0J-2">
          <mxGeometry width="160" relative="1" as="geometry">
            <mxPoint x="100" y="340" as="sourcePoint" />
            <mxPoint x="260" y="340" as="targetPoint" />
            <Array as="points">
              <mxPoint x="270" y="433" />
            </Array>
          </mxGeometry>
        </mxCell>
        <mxCell id="1pmSozE0tnj0pJejJN0J-18" value="Extends" style="endArrow=block;endSize=16;endFill=0;html=1;rounded=0;" edge="1" parent="1" source="1pmSozE0tnj0pJejJN0J-12" target="1pmSozE0tnj0pJejJN0J-2">
          <mxGeometry x="0.0209" y="2" width="160" relative="1" as="geometry">
            <mxPoint x="390" y="270" as="sourcePoint" />
            <mxPoint x="420" y="190" as="targetPoint" />
            <Array as="points">
              <mxPoint x="270" y="433" />
            </Array>
            <mxPoint as="offset" />
          </mxGeometry>
        </mxCell>
        <mxCell id="1pmSozE0tnj0pJejJN0J-26" value="person" style="swimlane;fontStyle=0;childLayout=stackLayout;horizontal=1;startSize=26;fillColor=none;horizontalStack=0;resizeParent=1;resizeParentMax=0;resizeLast=0;collapsible=1;marginBottom=0;" vertex="1" parent="1">
          <mxGeometry x="337" y="630" width="140" height="52" as="geometry" />
        </mxCell>
        <mxCell id="1pmSozE0tnj0pJejJN0J-27" value="+ introduce(): string" style="text;strokeColor=none;fillColor=none;align=left;verticalAlign=top;spacingLeft=4;spacingRight=4;overflow=hidden;rotatable=0;points=[[0,0.5],[1,0.5]];portConstraint=eastwest;" vertex="1" parent="1pmSozE0tnj0pJejJN0J-26">
          <mxGeometry y="26" width="140" height="26" as="geometry" />
        </mxCell>
        <mxCell id="1pmSozE0tnj0pJejJN0J-30" value="Extends" style="endArrow=block;endSize=16;endFill=0;html=1;rounded=0;" edge="1" parent="1" source="1pmSozE0tnj0pJejJN0J-31" target="1pmSozE0tnj0pJejJN0J-26">
          <mxGeometry x="-0.0909" width="160" relative="1" as="geometry">
            <mxPoint x="407" y="760" as="sourcePoint" />
            <mxPoint x="477" y="740" as="targetPoint" />
            <mxPoint as="offset" />
          </mxGeometry>
        </mxCell>
        <mxCell id="1pmSozE0tnj0pJejJN0J-31" value="Teacher" style="swimlane;fontStyle=0;childLayout=stackLayout;horizontal=1;startSize=26;fillColor=none;horizontalStack=0;resizeParent=1;resizeParentMax=0;resizeLast=0;collapsible=1;marginBottom=0;" vertex="1" parent="1">
          <mxGeometry x="337" y="770" width="140" height="52" as="geometry" />
        </mxCell>
        <mxCell id="1pmSozE0tnj0pJejJN0J-32" value="+ introduce(): string" style="text;strokeColor=none;fillColor=none;align=left;verticalAlign=top;spacingLeft=4;spacingRight=4;overflow=hidden;rotatable=0;points=[[0,0.5],[1,0.5]];portConstraint=eastwest;" vertex="1" parent="1pmSozE0tnj0pJejJN0J-31">
          <mxGeometry y="26" width="140" height="26" as="geometry" />
        </mxCell>
        <mxCell id="1pmSozE0tnj0pJejJN0J-37" value="student" style="swimlane;fontStyle=0;childLayout=stackLayout;horizontal=1;startSize=26;fillColor=none;horizontalStack=0;resizeParent=1;resizeParentMax=0;resizeLast=0;collapsible=1;marginBottom=0;" vertex="1" parent="1">
          <mxGeometry x="532" y="770" width="140" height="52" as="geometry" />
        </mxCell>
        <mxCell id="1pmSozE0tnj0pJejJN0J-40" value="+ introduce(): string" style="text;strokeColor=none;fillColor=none;align=left;verticalAlign=top;spacingLeft=4;spacingRight=4;overflow=hidden;rotatable=0;points=[[0,0.5],[1,0.5]];portConstraint=eastwest;" vertex="1" parent="1pmSozE0tnj0pJejJN0J-37">
          <mxGeometry y="26" width="140" height="26" as="geometry" />
        </mxCell>
        <mxCell id="1pmSozE0tnj0pJejJN0J-42" value="Extends" style="endArrow=block;endSize=16;endFill=0;html=1;rounded=0;exitX=0.5;exitY=0;exitDx=0;exitDy=0;" edge="1" parent="1" source="1pmSozE0tnj0pJejJN0J-37" target="1pmSozE0tnj0pJejJN0J-26">
          <mxGeometry width="160" relative="1" as="geometry">
            <mxPoint x="407" y="640" as="sourcePoint" />
            <mxPoint x="567" y="640" as="targetPoint" />
            <Array as="points">
              <mxPoint x="407" y="740" />
            </Array>
          </mxGeometry>
        </mxCell>
        <mxCell id="1pmSozE0tnj0pJejJN0J-43" value="class" style="html=1;" vertex="1" parent="1">
          <mxGeometry x="120" y="770" width="110" height="50" as="geometry" />
        </mxCell>
        <mxCell id="1pmSozE0tnj0pJejJN0J-44" value="" style="endArrow=diamondThin;endFill=0;endSize=24;html=1;rounded=0;" edge="1" parent="1" source="1pmSozE0tnj0pJejJN0J-43" target="1pmSozE0tnj0pJejJN0J-37">
          <mxGeometry width="160" relative="1" as="geometry">
            <mxPoint x="380" y="950" as="sourcePoint" />
            <mxPoint x="270" y="950" as="targetPoint" />
            <Array as="points">
              <mxPoint x="175" y="950" />
              <mxPoint x="602" y="950" />
            </Array>
          </mxGeometry>
        </mxCell>
        <mxCell id="1pmSozE0tnj0pJejJN0J-46" value="Use" style="endArrow=open;endSize=12;dashed=1;html=1;rounded=0;entryX=0.132;entryY=1.084;entryDx=0;entryDy=0;entryPerimeter=0;exitX=0.772;exitY=0.972;exitDx=0;exitDy=0;exitPerimeter=0;" edge="1" parent="1" source="1pmSozE0tnj0pJejJN0J-32" target="1pmSozE0tnj0pJejJN0J-40">
          <mxGeometry width="160" relative="1" as="geometry">
            <mxPoint x="220" y="870" as="sourcePoint" />
            <mxPoint x="380" y="870" as="targetPoint" />
            <Array as="points">
              <mxPoint x="445" y="860" />
              <mxPoint x="550" y="860" />
            </Array>
          </mxGeometry>
        </mxCell>
        <mxCell id="1pmSozE0tnj0pJejJN0J-48" value="" style="endArrow=diamondThin;endFill=0;endSize=24;html=1;rounded=0;" edge="1" parent="1" source="1pmSozE0tnj0pJejJN0J-43" target="1pmSozE0tnj0pJejJN0J-31">
          <mxGeometry width="160" relative="1" as="geometry">
            <mxPoint x="220" y="850" as="sourcePoint" />
            <mxPoint x="380" y="850" as="targetPoint" />
            <Array as="points">
              <mxPoint x="175" y="950" />
              <mxPoint x="407" y="950" />
            </Array>
          </mxGeometry>
        </mxCell>
      </root>
    </mxGraphModel>
  </diagram>
</mxfile>
